<svg width="52" height="52" viewBox="0 0 52 52" version="1.1" xmlns="http://www.w3.org/2000/svg" xmlns:xlink="http://www.w3.org/1999/xlink">
<g id="Canvas" fill="none">
<g id="Twitter">
<g id="Vector">
<path d="M 26 52C 40.3594 52 52 40.3594 52 26C 52 11.6406 40.3594 0 26 0C 11.6406 0 0 11.6406 0 26C 0 40.3594 11.6406 52 26 52Z" fill="url(#paint0_linear)"/>
</g>
<g id="Vector_2">
<path d="M 29.3565 0.897501L 24.7099 24.3063C 24.7099 24.3063 24.0572 25.9331 22.2745 25.1538L 11.5589 16.9417L 7.66227 15.0616L 1.10625 12.8503C 1.10625 12.8503 0.10288 12.4899 0.00546519 11.7105C -0.0919496 10.9312 1.14522 10.5123 1.14522 10.5123L 27.2231 0.283787C 27.2134 0.283787 29.3565 -0.661136 29.3565 0.897501Z" transform="translate(9.2876 14.0552)" fill="white"/>
</g>
<g id="Vector_3">
<path d="M 3.06857 19.2427C 3.06857 19.2427 2.75684 19.2134 2.36718 17.9763C 1.97752 16.7391 5.94572e-07 10.2513 5.94572e-07 10.2513L 15.752 0.246784C 15.752 0.246784 16.6579 -0.30848 16.6287 0.246784C 16.6287 0.246784 16.7943 0.344198 16.3072 0.802048C 15.8202 1.2599 3.93556 11.9366 3.93556 11.9366" transform="translate(16.9595 18.8662)" fill="#D3E6F2"/>
</g>
<g id="Vector_4">
<path d="M 4.92919 3.21469L 0.691645 7.08206C 0.691645 7.08206 0.360434 7.33533 -2.97286e-07 7.17947L 0.808543 0" transform="translate(20.0386 30.9292)" fill="#B6D0E5"/>
</g>
</g>
</g>
<defs>

<linearGradient id="paint0_linear" x2="1" gradientUnits="userSpaceOnUse" gradientTransform="matrix(0 51.8067 -51.8067 0 51.9015 0)">
<stop stop-color="#42BDE9"/>
<stop offset="1" stop-color="#22A7DD"/>
</linearGradient>

</defs>
</svg>

