<svg width="60" height="44" viewBox="0 0 60 44" version="1.1" xmlns="http://www.w3.org/2000/svg" xmlns:xlink="http://www.w3.org/1999/xlink">
<g id="Canvas" fill="none">
<g id="zendesk">
<g id="Page 3">
<g id="middle">
<g id="support">
<g id="links">
<g id="helpdesk">
<g id="icons/zendesk">
<g id="Shape">
<path d="M 27.7146 -7.11066e-08L 27.7146 32.3806L 3.13369e-10 32.3806L 27.7146 -7.11066e-08Z" transform="translate(0 11.6191)" fill="#6E6E85"/>
</g>
<g id="Shape_2">
<path d="M 27.7146 -7.65415e-10C 27.7146 7.4036 21.5083 13.4093 13.8573 13.4093C 6.20637 13.4093 3.13369e-10 7.4036 3.13369e-10 -7.65415e-10L 27.7146 -7.65415e-10Z" fill="#6E6E85"/>
</g>
<g id="Shape_3">
<path d="M 8.49981e-07 13.4093C 8.49981e-07 5.99832 6.19873 -1.0423e-07 13.8573 -1.0423e-07C 21.5159 -1.0423e-07 27.7146 6.00572 27.7146 13.4093L 8.49981e-07 13.4093Z" transform="translate(32.2852 30.5903)" fill="#6E6E85"/>
</g>
<g id="Shape_4">
<path d="M 8.49981e-07 32.3732L 8.49981e-07 -7.65415e-10L 27.7146 -7.65415e-10L 8.49981e-07 32.3732Z" transform="translate(32.2852 0)" fill="#6E6E85"/>
</g>
</g>
</g>
</g>
</g>
</g>
</g>
</g>
</g>
</svg>

